<?xml version="1.0" encoding="UTF-8"?><svg id="Calque_1" xmlns="http://www.w3.org/2000/svg" viewBox="0 0 471.77 153.37"><defs><style>.cls-1{fill:#fc0;}.cls-2{fill:#00413b;}.cls-3{fill:#82c46c;}</style></defs><path class="cls-1" d="M258.28,114.5c-1.98-2.03-4.38-3.65-7.13-4.81-2.76-1.15-5.81-1.74-9.08-1.74s-6.32.59-9.08,1.74c-2.76,1.16-5.16,2.78-7.13,4.81-1.97,2.03-3.53,4.45-4.65,7.21-1.11,2.75-1.68,5.76-1.68,8.95s.56,6.2,1.68,8.95c1.11,2.75,2.67,5.18,4.65,7.21,1.97,2.03,4.37,3.65,7.13,4.81,2.76,1.15,5.81,1.74,9.08,1.74s6.32-.59,9.08-1.74c2.76-1.16,5.16-2.78,7.13-4.81,1.97-2.03,3.53-4.45,4.65-7.21,1.11-2.75,1.68-5.76,1.68-8.95s-.56-6.2-1.68-8.95c-1.11-2.75-2.68-5.18-4.65-7.21ZM242.06,145.87c-2.18,0-4.17-.4-5.9-1.2-1.75-.81-3.27-1.9-4.51-3.24-1.24-1.35-2.22-2.97-2.9-4.81-.68-1.85-1.03-3.86-1.03-5.95s.35-4.1,1.03-5.95c.68-1.84,1.66-3.46,2.9-4.81,1.24-1.35,2.76-2.44,4.51-3.24,1.73-.8,3.72-1.2,5.9-1.2s4.17.4,5.9,1.2c1.75.8,3.26,1.89,4.51,3.24,1.24,1.35,2.22,2.97,2.9,4.81.68,1.86,1.03,3.86,1.03,5.95s-.35,4.1-1.03,5.95c-.68,1.84-1.65,3.46-2.9,4.81-1.24,1.35-2.76,2.44-4.51,3.24-1.74.8-3.72,1.2-5.9,1.2Z"/><rect class="cls-3" x="188.8" y="55.72" width="29.82" height="7.5"/><rect class="cls-3" x="402.92" y="55.72" width="29.82" height="7.5"/><rect class="cls-3" x="270.32" y="55.72" width="29.76" height="7.5"/><polygon class="cls-2" points="188.8 152.33 196.65 152.33 196.65 134.59 215.49 134.59 215.49 127.09 196.65 127.09 196.65 116.5 216.88 116.5 216.88 109 188.8 109 188.8 152.33"/><polygon class="cls-2" points="298.35 140.3 277.37 109 268.31 109 268.31 152.33 276.16 152.33 276.16 121 297.37 152.33 306.2 152.33 306.2 109 298.35 109 298.35 140.3"/><path class="cls-2" d="M343.07,140.84c-1.13,1.59-2.52,2.84-4.14,3.72-1.6.87-3.5,1.31-5.66,1.31s-4.23-.4-5.97-1.17c-1.74-.78-3.23-1.86-4.43-3.2-1.21-1.35-2.15-2.94-2.79-4.73-.65-1.8-.98-3.73-.98-5.76,0-2.18.35-4.24,1.03-6.13.68-1.88,1.65-3.55,2.88-4.94,1.22-1.38,2.72-2.49,4.44-3.29,1.71-.8,3.67-1.2,5.81-1.2,1.72,0,3.42.38,5.03,1.12,1.6.73,2.94,1.79,3.98,3.14l.69.9,6.45-4.92-.7-.91c-1.78-2.32-4.1-4.06-6.89-5.18-2.73-1.09-5.56-1.65-8.4-1.65-3.3,0-6.38.58-9.13,1.71-2.76,1.14-5.17,2.76-7.14,4.82-1.97,2.05-3.52,4.52-4.62,7.33-1.09,2.81-1.64,5.9-1.64,9.2,0,2.72.51,5.44,1.52,8.09,1.01,2.65,2.5,5.07,4.43,7.18,1.93,2.11,4.29,3.84,7.02,5.13,2.75,1.3,5.87,1.96,9.27,1.96,2.47,0,4.69-.32,6.59-.96,1.88-.63,3.51-1.37,4.85-2.2,1.35-.84,2.45-1.69,3.29-2.55.82-.84,1.39-1.48,1.73-1.95l.66-.91-6.53-4.92-.68.96Z"/><rect class="cls-2" x="354.28" y="109" width="7.85" height="43.33"/><path class="cls-2" d="M429.22,132.22c1.37-.74,2.55-1.66,3.5-2.74.95-1.08,1.7-2.31,2.21-3.65.51-1.34.77-2.76.77-4.2s-.21-2.81-.62-4.28c-.43-1.53-1.21-2.93-2.31-4.16-1.09-1.22-2.59-2.24-4.44-3.01-1.83-.77-4.17-1.16-6.94-1.16h-15.58v43.33h7.85v-18.09h4.4l10.44,18.09h9.67l-11.84-19.02c1.02-.24,1.99-.61,2.87-1.08ZM426.9,118.8c.4.69.6,1.64.6,2.82s-.2,2.13-.6,2.82c-.4.69-.92,1.21-1.57,1.57-.71.4-1.54.67-2.47.83-1,.16-2.02.25-3.03.25h-6.16v-10.93h6.16c1.02,0,2.04.08,3.03.25.93.15,1.76.43,2.47.83.65.36,1.16.88,1.57,1.57Z"/><polygon class="cls-2" points="232.42 67.57 253.63 98.9 262.45 98.9 262.45 55.57 254.6 55.57 254.6 86.87 233.63 55.57 224.57 55.57 224.57 98.9 232.42 98.9 232.42 67.57"/><path class="cls-2" d="M313.99,80.81h4.4l10.44,18.09h9.67l-11.84-19.02c1.02-.24,1.99-.61,2.87-1.08,1.37-.74,2.55-1.66,3.5-2.74.95-1.08,1.7-2.31,2.21-3.65.51-1.34.77-2.76.77-4.2s-.21-2.82-.62-4.28c-.43-1.53-1.21-2.93-2.31-4.16-1.1-1.22-2.59-2.24-4.44-3.02-1.84-.77-4.17-1.16-6.94-1.16h-15.58v43.33h7.85v-18.09ZM327.23,71.01c-.4.7-.92,1.21-1.57,1.58-.71.4-1.54.68-2.47.83-1,.16-2.02.25-3.03.25h-6.16v-10.94h6.16c1.02,0,2.04.08,3.03.25.93.15,1.76.43,2.47.83.65.36,1.16.88,1.57,1.57.4.69.6,1.64.6,2.82s-.2,2.13-.6,2.82Z"/><path class="cls-2" d="M378.27,96.01l.54-.33v-22.01h-16.95v7.5h9.1v9.59c-1.02.49-2.22.88-3.58,1.17-1.67.35-3.47.53-5.36.53-2.12,0-4.09-.39-5.87-1.15-1.79-.77-3.36-1.84-4.68-3.2-1.32-1.35-2.37-2.98-3.12-4.82-.75-1.84-1.13-3.87-1.13-6.03s.35-4.1,1.03-5.95c.68-1.84,1.66-3.46,2.9-4.81,1.24-1.35,2.76-2.44,4.51-3.24,1.73-.8,3.72-1.2,5.9-1.2,1.95,0,3.84.3,5.61.9,1.73.58,3.4,1.64,4.97,3.14l.84.8,5.47-5.88-.76-.78c-1.73-1.77-3.89-3.17-6.43-4.18-2.52-1-5.78-1.5-9.7-1.5-3.27,0-6.32.59-9.08,1.74-2.76,1.16-5.16,2.77-7.13,4.81-1.97,2.03-3.53,4.46-4.65,7.21-1.11,2.75-1.68,5.76-1.68,8.95s.52,5.94,1.55,8.67c1.03,2.74,2.56,5.18,4.53,7.25,1.97,2.08,4.42,3.75,7.28,4.96,2.86,1.21,6.14,1.83,9.75,1.83,1.27,0,2.65-.08,4.1-.24,1.45-.16,2.9-.41,4.32-.75,1.41-.34,2.79-.75,4.1-1.23,1.34-.49,2.57-1.07,3.63-1.72Z"/><rect class="cls-2" x="386.67" y="55.57" width="7.85" height="43.33"/><polygon class="cls-2" points="196.65 80.53 216.13 80.53 216.13 73.02 188.8 73.02 188.8 98.9 218.62 98.9 218.62 91.4 196.65 91.4 196.65 80.53"/><polygon class="cls-2" points="300.14 91.4 278.17 91.4 278.17 80.53 297.65 80.53 297.65 73.02 270.32 73.02 270.32 98.9 300.14 98.9 300.14 91.4"/><polygon class="cls-2" points="432.74 91.4 410.77 91.4 410.77 80.53 430.25 80.53 430.25 73.02 402.92 73.02 402.92 98.9 432.74 98.9 432.74 91.4"/><polygon class="cls-2" points="378.29 134.33 397.38 134.33 397.38 125.96 377.79 125.96 377.79 117.36 399.82 117.36 399.82 108.99 369.58 108.99 369.58 152.35 399.82 152.35 399.82 143.98 378.29 143.98 378.29 134.33"/><polygon class="cls-2" points="450.23 143.98 450.23 134.33 469.32 134.33 469.32 125.96 449.73 125.96 449.73 117.36 471.77 117.36 471.77 108.99 441.53 108.99 441.53 152.35 471.77 152.35 471.77 143.98 450.23 143.98"/><path class="cls-1" d="M50.05,54.13c18.97,0,34.47,15.15,35.04,33.99h15c-.57-27.11-22.8-48.99-50.05-48.99S.57,61.01,0,88.12h15c.57-18.84,16.07-33.99,35.04-33.99Z"/><path class="cls-3" d="M104.86,29.67c-5.45-9.01-8.11-19.25-7.7-29.67h-15.96c-.37,13.4,3.08,26.5,10.01,37.94,12.71,20.99,34.94,33.52,59.47,33.52h0c1.62,0,3.32-.06,5.07-.19v-16.01c-20.39,1.9-40.26-8.05-50.88-25.58Z"/><path class="cls-2" d="M0,88.15v12.69h43.5c15.39,0,30.47,5.32,42.46,14.97,11.61,9.34,19.91,22.35,23.45,36.7h12.99c-1.18-5.73-2.97-11.31-5.35-16.61l-.63-1.41h39.31v-12.69h-46.8l-.3-.41c-5.29-7.26-11.72-13.56-19.1-18.73l-2.6-1.82h68.8v-12.69H0Z"/><path class="cls-2" d="M46.03,121.8H.24v12.69h45.76c.1,0,8.94.15,17.29,4.6,5.82,3.1,10.1,7.61,12.73,13.42h13.62c-9.09-30.27-43.27-30.71-43.62-30.71Z"/></svg>